<svg xmlns="http://www.w3.org/2000/svg" viewBox="0 0 2100 2550" width="2100" height="2550"><path fill="#FFF" d="M0 0h2100v2550H0z"/><g transform="translate(364.0 1888.0) rotate(0.0 158.5 245.5) scale(1.002783753005188 1.000156847407842)"><svg width="316.12" height="490.923" viewBox="0 0 316.12 490.923"><path d="M288.62 483.423H99.276c-11.046 0-20-8.954-20-20V148.967c0-22.091 17.909-40 40-40H268.62c24.985 0 40 17.909 40 40v314.456c0 11.046-8.954 20-20 20z" fill="#fff4e2"/><path d="M288.62 483.423H99.276c-11.046 0-20-8.954-20-20V258.75H308.62v204.673c0 11.046-8.954 20-20 20z" fill="#a1d7f1"/><g fill="#430c61"><path d="M288.62 490.923H99.276c-15.164 0-27.5-12.336-27.5-27.5V148.967c0-26.191 21.309-47.5 47.5-47.5H268.62c27.523 0 47.5 19.977 47.5 47.5v314.456c0 15.164-12.336 27.5-27.5 27.5zM119.276 116.467c-17.92 0-32.5 14.58-32.5 32.5v314.456c0 6.893 5.607 12.5 12.5 12.5H288.62c6.893 0 12.5-5.607 12.5-12.5V148.967c0-16.177-10.049-32.5-32.5-32.5z"/><path d="M110.133 453.477H79.276a7.5 7.5 0 0 1 0-15h30.857a7.5 7.5 0 0 1 0 15zm30.857-37.445H79.276a7.5 7.5 0 0 1 0-15h61.714a7.5 7.5 0 0 1 0 15zm-30.857-37.446H79.276a7.5 7.5 0 0 1 0-15h30.857a7.5 7.5 0 0 1 0 15zm30.857-37.445H79.276a7.5 7.5 0 0 1 0-15h61.714a7.5 7.5 0 0 1 0 15zm-30.857-37.446H79.276a7.5 7.5 0 0 1 0-15h30.857a7.5 7.5 0 0 1 0 15zm30.857-37.445H79.276a7.5 7.5 0 0 1 0-15h61.714a7.5 7.5 0 0 1 0 15zm-30.857-37.446H79.276a7.5 7.5 0 0 1 0-15h30.857a7.5 7.5 0 0 1 0 15zm30.857-37.446H79.276a7.5 7.5 0 0 1 0-15h61.714a7.5 7.5 0 0 1 0 15zm-30.857-37.445H79.276a7.5 7.5 0 0 1 0-15h30.857a7.5 7.5 0 0 1 0 15zm-44.116-21.878C29.615 132.035 0 102.419 0 66.018S29.615 0 66.017 0c23.832 0 41.336 10 56.778 18.823 13.38 7.644 24.935 14.245 38.878 14.245a7.5 7.5 0 0 1 0 15c-17.926 0-32.36-8.246-46.319-16.221C100.856 23.565 85.865 15 66.016 15c-28.131 0-51.017 22.886-51.017 51.018s22.886 51.017 51.017 51.017c10.932 0 16.967-3.372 23.956-7.277 6.955-3.886 14.837-8.291 27.035-8.291a7.5 7.5 0 0 1 0 15c-8.292 0-13.334 2.818-19.719 6.385-7.703 4.304-16.433 9.182-31.272 9.182z"/></g><path d="M270.888 108.967V60.581c0-11.046-8.954-20-20-20h-113.88c-11.046 0-20 8.954-20 20v48.386z" fill="#5550bc"/><path d="M278.388 116.467h-168.88V60.581c0-15.164 12.336-27.5 27.5-27.5h113.88c15.164 0 27.5 12.336 27.5 27.5zm-153.88-15h138.88V60.581c0-6.893-5.607-12.5-12.5-12.5h-113.88c-6.893 0-12.5 5.607-12.5 12.5z" fill="#430c61"/><path d="M147.784 116.467a7.5 7.5 0 0 1-7.5-7.5V40.581a7.5 7.5 0 0 1 15 0v68.386a7.5 7.5 0 0 1-7.5 7.5zm30.776 0a7.5 7.5 0 0 1-7.5-7.5V40.581a7.5 7.5 0 0 1 15 0v68.386a7.5 7.5 0 0 1-7.5 7.5zm30.776 0a7.5 7.5 0 0 1-7.5-7.5V40.581a7.5 7.5 0 0 1 15 0v68.386a7.5 7.5 0 0 1-7.5 7.5zm30.776 0a7.5 7.5 0 0 1-7.5-7.5V40.581a7.5 7.5 0 0 1 15 0v68.386a7.5 7.5 0 0 1-7.5 7.5z" fill="#430c61"/><path d="M226.222 34.068h-64.548a7.5 7.5 0 0 1 0-15h64.548a7.5 7.5 0 0 1 0 15z" fill="#430c61"/></svg></g><g transform="translate(746.0 413.0) rotate(-9.818211282545892 -74.0 129.5) scale(-1.001393831955289 1.002209504351292)"><svg width="147.794" height="258.429" viewBox="0 0 147.794 258.429"><rect fill="#5550bc" height="243.429" rx="15" width="132.794" x="7.5" y="7.5"/><path d="M125.294 258.429H22.5c-12.407 0-22.5-10.093-22.5-22.5V22.5C0 10.093 10.093 0 22.5 0h102.794c12.407 0 22.5 10.093 22.5 22.5v213.429c0 12.406-10.093 22.5-22.5 22.5zM22.5 15c-4.135 0-7.5 3.365-7.5 7.5v213.429c0 4.135 3.365 7.5 7.5 7.5h102.794c4.136 0 7.5-3.365 7.5-7.5V22.5c0-4.135-3.364-7.5-7.5-7.5z" fill="#430c61"/><rect fill="#948781" height="67.541" rx="15" width="67.541" x="7.5" y="7.5"/><g fill="#430c61"><path d="M60.04 82.541H22.5c-12.407 0-22.5-10.094-22.5-22.5V22.5C0 10.093 10.093 0 22.5 0h37.541C72.447 0 82.54 10.093 82.54 22.5v37.541c0 12.406-10.093 22.5-22.5 22.5zM22.5 15c-4.136 0-7.5 3.365-7.5 7.5v37.541c0 4.135 3.364 7.5 7.5 7.5h37.541c4.136 0 7.5-3.365 7.5-7.5V22.5c0-4.135-3.364-7.5-7.5-7.5z"/><circle cx="41.27" cy="41.27" r="12.788"/></g></svg></g><g transform="translate(537.0 173.0) rotate(0.0 597.0 1105.5) scale(1.0023850720180931 1.0019676814440661)"><svg width="1191.159" height="2206.658" viewBox="0 0 1191.159 2206.658"><path d="M302.649 593.347c20.406-74.215 78.114-132.369 152.17-153.346l68.254-19.333-147.817 535.873c-27.395 99.314-164.051 109.848-206.344 15.906L18.876 639.182a129.997 129.997 0 0 1-8.065-82.331l6.777-29.453 86.781 65.951L245.03 803.653l57.619-210.305z" fill="#c16f58"/><path d="M268.756 1044.809c-20.228 0-39.851-5.014-57.258-14.695-21.687-12.062-38.777-30.938-49.424-54.588L12.037 642.261C-.142 615.095-3.171 584.17 3.501 555.169l6.777-29.454a7.501 7.501 0 0 1 11.847-4.289l86.781 65.951a7.489 7.489 0 0 1 1.696 1.802l131.533 196.655 53.281-194.469s0-.004.002-.006c10.354-37.655 30.366-72.211 57.874-99.932s61.909-47.999 99.483-58.642l68.254-19.333a7.5 7.5 0 0 1 9.274 9.21L382.486 958.535c-6.897 25.003-20.893 46.276-40.474 61.519-18.166 14.141-40.215 22.574-63.765 24.39-3.173.245-6.34.366-9.491.366zM22.293 540.393l-4.173 18.139c-5.945 25.837-3.246 53.389 7.6 77.581l150.031 333.255c21.792 48.406 66.644 62.79 101.343 60.119 34.704-2.675 76.816-23.767 90.932-74.941l144.275-523.032-55.438 15.703c-71.072 20.132-127.392 76.888-146.98 148.112l-57.62 210.305a7.5 7.5 0 0 1-13.468 2.188L98.831 598.561l-76.539-58.167z" fill="#430c61"/><path d="M305.562 938.38a7.5 7.5 0 0 1-7.477-7.016c-2.549-39.326-26.703-75.166-52.276-113.11-2.332-3.46-4.675-6.936-7.014-10.434a7.499 7.499 0 0 1 2.064-10.403 7.498 7.498 0 0 1 10.403 2.064c2.33 3.482 4.662 6.944 6.984 10.389 26.739 39.674 51.995 77.148 54.806 120.523a7.5 7.5 0 0 1-7.492 7.985z" fill="#430c61"/><path d="M9.722 562.07s48.22-209.928 56.247-245.303c1.423-6.269 7.51-10.321 13.843-9.216a12.067 12.067 0 0 1 9.928 13.129l-2.038 107.629 91.736-73.999c5.084-4.194 12.582-3.584 16.921 1.377 3.911 4.471 3.759 10.904.275 15.715-16.808 23.212-74.882 84.869-74.882 84.869l78.648-71.087a12.182 12.182 0 0 1 17.043 17.244l-71.963 86.739c-5.02 87.701-55.441 115.753-55.441 115.753s-34.056-29.637-42.911-33.949c-21.313-10.378-37.408-8.902-37.408-8.902z" fill="#c16f58"/><path d="M87.702 428.309 89.74 320.68a12.067 12.067 0 0 0-9.928-13.129c-6.333-1.106-12.421 2.947-13.843 9.216C57.942 352.142 9.722 562.07 9.722 562.07" fill="#c16f58"/><path d="M9.728 569.571a7.5 7.5 0 0 1-7.316-9.181c.482-2.099 48.309-210.323 56.243-245.284 2.308-10.174 12.173-16.74 22.447-14.944 9.964 1.74 16.988 10.897 16.132 20.938l-2.033 107.351a7.498 7.498 0 0 1-7.641 7.356 7.499 7.499 0 0 1-7.356-7.641l2.038-107.629c.004-.21.017-.42.038-.629a4.583 4.583 0 0 0-3.758-4.97 4.566 4.566 0 0 0-5.239 3.487c-7.938 34.98-55.769 243.223-56.251 245.323a7.502 7.502 0 0 1-7.303 5.822z" fill="#430c61"/><path d="m121.752 456.271 78.649-71.087c5.121-4.148 12.613-3.472 16.908 1.528a12.182 12.182 0 0 1 .135 15.716l-71.963 86.74c-5.02 87.701-55.441 115.753-55.441 115.753" fill="#c16f58"/><path d="M90.047 612.423a7.5 7.5 0 0 1-3.654-14.055c.087-.05 11.829-6.84 23.978-23.612 11.243-15.521 25.162-43.044 27.622-86.016a7.503 7.503 0 0 1 1.716-4.36l71.963-86.74a4.672 4.672 0 0 0-.052-6.041 4.658 4.658 0 0 0-6.375-.684l-78.463 70.919a7.5 7.5 0 0 1-10.058-11.128l78.648-71.087c.101-.091.204-.179.309-.264 8.331-6.749 20.331-5.665 27.318 2.469a19.633 19.633 0 0 1 .218 25.393l-70.402 84.858c-5.988 88.843-56.942 118.184-59.127 119.4a7.463 7.463 0 0 1-3.64.948z" fill="#430c61"/><path d="M121.752 456.271s58.074-61.657 74.882-84.869c3.484-4.811 3.635-11.244-.275-15.715-4.339-4.961-11.837-5.571-16.921-1.377L77.773 436.318" fill="#c16f58"/><path d="M121.751 463.771a7.473 7.473 0 0 1-5.141-2.041 7.5 7.5 0 0 1-.317-10.602c.577-.613 57.934-61.57 74.267-84.125 1.293-1.785 1.842-4.449.155-6.378a4.659 4.659 0 0 0-6.504-.529l-101.729 82.06a7.5 7.5 0 0 1-9.418-11.674l101.665-82.008c8.207-6.771 20.216-5.794 27.275 2.276 6.071 6.94 6.36 17.242.704 25.051-16.896 23.335-73.112 83.081-75.497 85.612a7.479 7.479 0 0 1-5.461 2.358z" fill="#430c61"/><path d="M339.763 2102.339s-46.655-481.129-51.505-556.423c-4.849-75.294 1.132-144.103 88.978-627.338l19.995-99.195 365.932 9.598-247.686 672.604s13.689 62.911 5.758 133.709c-14.57 130.065-20.694 184.012-24.168 214.669-3.436 30.323-4.031 37.887-8.139 73.729-8.224 71.76 8.455 105.536 9.289 155.575l-158.456 23.073z" fill="#c16f58"/><path d="M339.762 2109.839a7.498 7.498 0 0 1-7.464-6.776c-.467-4.813-46.723-482.113-51.524-556.665-4.901-76.099 1.223-145.847 89.084-629.161l.027-.141 19.995-99.195a7.484 7.484 0 0 1 7.549-6.016l365.932 9.598a7.499 7.499 0 0 1 6.842 10.09l-246.946 670.594c2.373 11.911 12.681 69.268 5.434 133.961-13.799 123.185-19.931 177.284-23.595 209.607l-.575 5.071a4870.476 4870.476 0 0 0-3.517 32c-1.17 10.897-2.379 22.166-4.623 41.738-5.036 43.942-.542 73.183 3.804 101.461 2.681 17.445 5.213 33.923 5.534 53.135a7.502 7.502 0 0 1-6.418 7.547l-158.456 23.073c-.36.052-.721.078-1.081.078zm44.842-1189.857c-87.544 481.573-93.675 550.718-88.862 625.452 4.447 69.042 44.67 485.734 50.727 548.349l144.046-20.975c-.702-15.534-2.874-29.667-5.158-44.523-4.496-29.256-9.145-59.508-3.88-105.448a5118.296 5118.296 0 0 0 4.611-41.631c.964-8.986 1.962-18.279 3.527-32.088l.575-5.071c3.663-32.319 9.794-86.412 23.592-209.587 7.691-68.658-5.5-130.663-5.634-131.282a7.507 7.507 0 0 1 .291-4.184l244.072-662.789-349.173-9.159-18.733 92.937z" fill="#430c61"/><path d="m397.231 819.383-19.995 99.195c-87.846 483.235-93.827 552.044-88.978 627.338 2.41 37.415 15.142 175.041 27.343 304.046h181.466c3.474-30.656 9.597-84.599 24.168-214.669 7.931-70.798-5.758-133.709-5.758-133.709L763.163 828.98l-365.932-9.598z" fill="#948781"/><path d="M497.068 1857.462H315.602a7.5 7.5 0 0 1-7.467-6.794c-16.149-170.751-25.355-273.122-27.361-304.27-4.901-76.099 1.223-145.847 89.083-629.161l.027-.141 19.995-99.195a7.504 7.504 0 0 1 7.549-6.016l365.932 9.598a7.499 7.499 0 0 1 6.842 10.09l-246.946 670.595c2.373 11.911 12.681 69.268 5.434 133.961-13.751 122.749-19.889 176.908-23.556 209.268l-.613 5.41a7.5 7.5 0 0 1-7.452 6.656zm-174.642-15H490.37c3.683-32.499 9.838-86.822 23.413-208.003 7.691-68.658-5.5-130.663-5.634-131.281a7.507 7.507 0 0 1 .291-4.184l244.071-662.789-349.173-9.159-18.735 92.941c-87.543 481.573-93.673 550.713-88.86 625.447 1.942 30.148 11.164 132.797 26.683 297.028z" fill="#430c61"/><path d="M526.478 1145.965s33.444 360.008 92.978 450.02c32.694 49.431 125.529 165.227 196.868 252.586 55.671 68.077 157.817 193.166 157.817 193.166l134.603-88.607s-36.534-47.523-69.571-80.686c-15.217-15.275-43.505-68.637-72.948-127.248-20.465-40.947-46.095-93.374-63.068-126.679-28.837-56.587-57.847-104.039-93.941-133.531 0 0 18.731-360.81 19.459-403.873 2.3-136.056-56.141-251.886-56.141-251.886l-120.06-3.149" fill="#c16f58"/><path d="M974.145 2049.237a7.488 7.488 0 0 1-5.813-2.757c-1.021-1.251-102.781-125.865-157.814-193.161-58.66-71.833-162.293-200.241-197.317-253.196-25.289-38.235-48.83-126.299-69.969-261.746-15.657-100.324-24.137-190.816-24.221-191.718a7.5 7.5 0 0 1 6.774-8.162c4.12-.387 7.778 2.65 8.162 6.774.333 3.582 33.946 359.156 91.765 446.577 34.663 52.408 137.943 180.368 196.421 251.979 48.577 59.402 133.563 163.466 153.537 187.924l122.151-80.41c-11.067-14.006-38.724-48.271-63.961-73.604-13.355-13.406-35.587-52.038-74.336-129.174-8.007-16.021-16.921-34.033-25.541-51.453-13.365-27.006-27.184-54.931-37.507-75.188-24.16-47.409-53.984-100.063-92.004-131.128a7.503 7.503 0 0 1-2.745-6.197c.188-3.607 18.733-361.17 19.451-403.611 2.005-118.609-43.453-222.969-53.427-244.382l-115.471-3.028c-4.141-.109-7.409-3.554-7.301-7.694s3.552-7.396 7.694-7.301l120.06 3.149a7.501 7.501 0 0 1 6.499 4.119c.608 1.205 15.055 30.041 29.397 76.069 13.231 42.463 28.751 108.043 27.546 179.322-.69 40.849-17.175 359.877-19.274 400.391 38.742 33.031 68.682 85.879 92.939 133.48 10.361 20.332 24.198 48.292 37.579 75.331 8.617 17.411 17.526 35.415 25.516 51.4 25.229 50.222 56.168 109.865 71.553 125.308 32.995 33.121 69.835 80.929 70.204 81.408a7.5 7.5 0 0 1-1.822 10.836l-134.603 88.607a7.477 7.477 0 0 1-4.12 1.236z" fill="#430c61"/><path d="M526.478 1145.965s33.444 360.008 92.978 450.02c32.693 49.431 125.529 165.227 196.867 252.586l149.901-103.375c-20.465-40.947-46.095-93.374-63.068-126.679-28.837-56.587-57.847-104.039-93.941-133.531 0 0 18.732-360.81 19.459-403.873 2.3-136.056-56.141-251.886-56.141-251.886l-120.06-3.149" fill="#948781"/><path d="M816.328 1856.071a7.488 7.488 0 0 1-5.813-2.757c-58.657-71.829-162.29-200.237-197.314-253.192-25.289-38.235-48.829-126.3-69.968-261.746-15.658-100.323-24.137-190.815-24.221-191.718a7.5 7.5 0 0 1 6.774-8.162 7.494 7.494 0 0 1 8.162 6.774c.333 3.582 33.946 359.156 91.765 446.577 33.814 51.125 132.928 174.149 192.048 246.622l138.846-95.751c-7.221-14.483-15.038-30.279-22.627-45.615-13.363-27.003-27.182-54.926-37.504-75.182-24.16-47.409-53.984-100.063-92.005-131.128a7.5 7.5 0 0 1-2.744-6.197c.187-3.607 18.733-361.17 19.45-403.611 2.005-118.609-43.453-222.969-53.427-244.382l-115.471-3.028c-4.141-.109-7.409-3.554-7.301-7.694s3.555-7.382 7.694-7.301l120.06 3.149a7.5 7.5 0 0 1 6.499 4.119c.608 1.205 15.055 30.041 29.397 76.069 13.231 42.463 28.751 108.043 27.546 179.322-.69 40.849-17.175 359.877-19.274 400.391 38.742 33.031 68.682 85.879 92.94 133.48 10.362 20.334 24.2 48.297 37.583 75.339 8.615 17.409 17.523 35.41 25.511 51.392a7.5 7.5 0 0 1-2.451 9.527l-149.901 103.375a7.47 7.47 0 0 1-4.253 1.326z" fill="#430c61"/><path d="m428.669 820.207-17.06 111.838" fill="#948781"/><path d="M411.618 939.545a7.5 7.5 0 0 1-7.423-8.632l17.06-111.837c.624-4.095 4.454-6.911 8.545-6.283a7.5 7.5 0 0 1 6.283 8.545l-17.06 111.837a7.502 7.502 0 0 1-7.405 6.37z" fill="#430c61"/><path d="m460.106 821.032-12.549 120.954" fill="#948781"/><path d="M447.566 949.487a7.5 7.5 0 0 1-7.469-8.275l12.55-120.955a7.5 7.5 0 0 1 14.92 1.548l-12.55 120.955a7.502 7.502 0 0 1-7.451 6.727z" fill="#430c61"/><path d="m491.543 821.857-7.029 127.32" fill="#948781"/><path d="M484.521 956.677a7.5 7.5 0 0 1-7.495-7.913l7.03-127.321a7.5 7.5 0 0 1 14.977.827l-7.03 127.321a7.5 7.5 0 0 1-7.482 7.086z" fill="#430c61"/><path d="m522.981 822.681-.907 131.168" fill="#948781"/><path d="M522.075 961.349h-.053a7.5 7.5 0 0 1-7.448-7.552l.907-131.167a7.5 7.5 0 0 1 7.499-7.448h.053a7.5 7.5 0 0 1 7.448 7.552l-.907 131.167a7.5 7.5 0 0 1-7.499 7.448z" fill="#430c61"/><path d="m554.418 823.506 5.458 132.655" fill="#948781"/><path d="M559.871 963.661a7.5 7.5 0 0 1-7.488-7.192l-5.458-132.655a7.5 7.5 0 0 1 14.988-.616l5.458 132.655a7.5 7.5 0 0 1-7.499 7.808z" fill="#430c61"/><path d="m585.856 824.33 11.737 131.943" fill="#948781"/><path d="M597.585 963.773a7.5 7.5 0 0 1-7.462-6.836l-11.738-131.942a7.5 7.5 0 0 1 6.806-8.135 7.498 7.498 0 0 1 8.135 6.806l11.738 131.942a7.5 7.5 0 0 1-7.479 8.165z" fill="#430c61"/><path d="m617.293 825.155 17.642 129.202" fill="#948781"/><path d="M634.925 961.858a7.503 7.503 0 0 1-7.422-6.486l-17.642-129.203a7.501 7.501 0 0 1 14.863-2.029l17.642 129.203a7.501 7.501 0 0 1-7.441 8.516z" fill="#430c61"/><path d="m648.731 825.979 22.917 124.628" fill="#948781"/><path d="M671.639 958.108a7.502 7.502 0 0 1-7.368-6.145l-22.917-124.627a7.5 7.5 0 1 1 14.753-2.713l22.917 124.627a7.5 7.5 0 0 1-7.385 8.858z" fill="#430c61"/><path d="m680.168 826.804 27.355 118.421" fill="#948781"/><path d="M707.516 952.727a7.502 7.502 0 0 1-7.301-5.813L672.86 828.492a7.5 7.5 0 1 1 14.616-3.376l27.355 118.422a7.501 7.501 0 0 1-7.315 9.19z" fill="#430c61"/><path d="m711.606 827.629 30.786 110.793" fill="#948781"/><path d="M742.388 945.924a7.503 7.503 0 0 1-7.222-5.494l-30.787-110.793a7.5 7.5 0 1 1 14.452-4.016l30.787 110.793a7.5 7.5 0 0 1-7.23 9.51z" fill="#430c61"/><path d="m743.043 828.453 33.086 101.952" fill="#948781"/><path d="M776.127 937.906a7.501 7.501 0 0 1-7.132-5.187L735.91 830.768a7.5 7.5 0 0 1 14.268-4.63l33.085 101.951a7.5 7.5 0 0 1-7.135 9.817z" fill="#430c61"/><path d="M580.632 963.983c-31.281 0-61.728-2.149-90.958-6.433-74.045-10.853-114.227-31.447-115.9-32.319a7.499 7.499 0 0 1-3.19-10.115 7.499 7.499 0 0 1 10.108-3.194c.394.204 40.17 20.492 111.987 30.907 66.302 9.616 174.261 12.542 312.06-28.123a7.5 7.5 0 1 1 4.245 14.387c-62.141 18.338-123.615 29.575-182.714 33.398a706.9 706.9 0 0 1-45.637 1.491z" fill="#430c61"/><path d="m738.991 445.39 55.213 207.731-21.669 176.106c-58.915-9.282-375.303-9.844-375.303-9.844l-8.264-46.959c-7.855-50.039-29.265-118.585-7.304-168.902 28.92-66.26 65.175-160.106 65.175-160.106l70.135-20.928 151.358 3.676 70.659 19.227z" fill="#fff4e2"/><path d="M772.534 836.727c-.389 0-.778-.03-1.167-.091-57.675-9.086-370.992-9.747-374.149-9.752a7.501 7.501 0 0 1-7.374-6.2l-8.264-46.959a5.6 5.6 0 0 1-.022-.137c-1.545-9.842-3.621-20.405-5.819-31.588-9.125-46.429-19.466-99.053-.95-141.477 28.523-65.351 64.691-158.872 65.053-159.809a7.498 7.498 0 0 1 4.852-4.484l70.135-20.928a7.252 7.252 0 0 1 2.327-.311l151.359 3.676a7.498 7.498 0 0 1 1.787.261l70.659 19.227a7.5 7.5 0 0 1 5.279 5.31l55.213 207.731c.246.927.313 1.892.195 2.843l-21.669 176.106a7.497 7.497 0 0 1-7.444 6.584zm-369.005-24.829c44.183.126 293.844 1.18 362.485 8.907l20.568-167.16-53.73-202.153-65.611-17.854-149.262-3.625-65.477 19.538c-6.816 17.537-38.422 98.446-63.966 156.97-16.642 38.129-6.78 88.311 1.921 132.584 2.221 11.303 4.319 21.98 5.908 32.087l7.163 40.705z" fill="#430c61"/><path d="m388.967 772.424 8.264 46.959c30.099 33.658 225.207 57.55 375.304 9.844l5.566-47.629c-242.252 59.85-389.134-9.174-389.134-9.174z" fill="#c16f58"/><path d="M583.139 863.572a743.37 743.37 0 0 1-43.698-1.268c-73.049-4.32-131.064-19.206-147.801-37.921a7.503 7.503 0 0 1-1.796-3.7l-8.264-46.959a7.498 7.498 0 0 1 10.57-8.09c.362.169 36.994 17.058 102.366 26.508 60.333 8.721 158.196 12.709 281.785-17.825a7.503 7.503 0 0 1 9.248 8.152l-5.566 47.629a7.5 7.5 0 0 1-5.177 6.277c-69.233 22.005-140.171 27.198-191.667 27.198zm-178.925-47.786c13.449 12.354 60.615 27.079 136.113 31.544 78.754 4.658 160.536-4.013 225.324-23.813l3.753-32.111c-121.379 28.446-217.721 24.235-277.796 15.47-45.109-6.581-76.584-16.436-92.911-22.441l5.518 31.352zm-15.246-43.362h.01z" fill="#430c61"/><path d="M555.206 374.615c-77.837 3.746-112.34-72.877-105.272-150.205 2.298-25.146 9.566-48.275 20.379-67.854 22.439-40.63 64.293-65.515 104.528-61.838 59.624 5.45 121.286 56.821 103.357 153.383-3.723 20.051-21.53 36.984-29.106 50.741 0 0-12.788 87.846 19.24 127.32 0 0-32.549 59.385-97.885 50.486-57.217-7.793-53.473-54.162-53.473-54.162 16.263-25.853 13.983-49.445 13.983-49.445" fill="#c16f58"/><g fill="#430c61"><path d="M583.471 485.043c-4.632 0-9.314-.319-14.037-.962-32.817-4.47-47.426-21.016-53.903-34.109-7.055-14.263-6.078-27.53-6.033-28.087a7.503 7.503 0 0 1 1.127-3.39c10.357-16.464 12.521-31.785 12.886-39.504-17.082-4.417-32.225-13.283-44.717-26.325-27.503-28.713-41.083-76.914-36.329-128.936 2.312-25.292 9.671-49.773 21.283-70.798 23.866-43.215 68.782-69.613 111.776-65.681 35.299 3.227 67.416 20.759 88.117 48.101 15.797 20.866 32.426 57.603 21.932 114.12-2.828 15.228-12.294 28.07-20.647 39.402-3.272 4.439-6.381 8.656-8.59 12.408-1.393 11.045-9.677 86.265 17.822 120.157a7.501 7.501 0 0 1 .752 8.331c-.359.656-9.008 16.241-26.187 30.711-19.236 16.203-41.565 24.563-65.25 24.563zm-59.06-60.334c.06 7.563 3.032 38.514 47.047 44.509 24.739 3.369 47.348-3.32 67.207-19.882 10.262-8.557 17.165-17.717 20.588-22.802-29.641-43.022-18.106-125.177-17.583-128.772.13-.89.418-1.75.852-2.537 2.702-4.906 6.406-9.932 10.329-15.253 7.394-10.031 15.775-21.4 17.973-33.24 7.516-40.475.896-75.859-19.143-102.328-18.16-23.986-46.416-39.374-77.523-42.218-37.157-3.394-76.248 19.911-97.28 57.996-10.617 19.223-17.352 41.669-19.476 64.911-4.365 47.761 7.681 91.572 32.224 117.195 16.997 17.744 38.938 26.1 65.219 24.835 4.122-.199 7.652 2.994 7.852 7.131s-2.993 7.652-7.131 7.852c-5.884.284-11.629.129-17.206-.454-.707 9.704-3.594 25.84-13.949 43.056z"/><path d="M555.199 382.115a7.5 7.5 0 0 1-.424-14.987c28.688-1.65 46.835-16.243 47.015-16.39 3.199-2.617 7.921-2.161 10.548 1.027 2.627 3.189 2.191 7.894-.989 10.532-.877.729-21.885 17.86-55.712 19.806a8.004 8.004 0 0 1-.438.012zm49.76-303.022c96.115-42.704 170.729 64.09 131.457 141.934 30.83 70.422-23.062 113.541-81.623 105.687l-6.003-59.582c-11.79-35.507-.402-83.734-35.284-96.749-48.543 34.368-67.047.484-91.954-11.179-22.94-10.742-67.694 20.419-67.694 20.419-26.455-5.839-44.83-86.426 11.909-117.23 34.664-18.82 75.717-9.464 93.713 13.841 0 0-2.524-4.298 45.48 2.859z"/><path d="M668.543 335.14c-4.851 0-9.776-.326-14.747-.993a7.5 7.5 0 0 1-6.465-6.682l-5.922-58.775c-3.935-12.236-5.322-25.462-6.664-38.262-2.419-23.076-4.529-43.205-20.442-51.501-39.538 26.166-62.198 9.951-80.507-3.153-5.308-3.799-10.322-7.388-15.426-9.778-15.53-7.271-49.538 12.339-60.228 19.782a7.499 7.499 0 0 1-5.902 1.169c-14.651-3.233-26.807-21.801-30.247-46.204-3.997-28.344 4.463-65.543 40.193-84.941 17.724-9.623 38.308-13.059 57.958-9.676 16.725 2.879 31.67 10.603 41.824 21.475 1.696-.153 3.601-.174 5.729-.123 7.741.186 19.927 1.491 36.239 3.883 43.011-18.256 87.008-9.802 118.066 22.82 15.694 16.485 26.608 38.074 30.731 60.792 4.18 23.03 1.381 45.86-8.088 66.264 12.685 31.142 10.666 60.152-5.794 81.997-15.298 20.302-41.399 31.905-70.309 31.906zm-6.9-15.252c26.985 1.979 51.601-7.595 65.229-25.681 13.621-18.077 14.571-42.998 2.674-70.172a7.503 7.503 0 0 1 .174-6.386c18.175-36.024 10.534-82.543-18.581-113.125-27.381-28.762-64.974-35.532-103.134-18.576a7.505 7.505 0 0 1-4.151.564c-27.904-4.161-37.376-4.206-40.268-4a7.5 7.5 0 0 1-10.042-1.693c-15.058-19.5-51.53-29.57-84.198-11.833-28.984 15.736-35.792 46.304-32.498 69.665 2.368 16.794 9.539 28.886 16.025 32.605 11.821-7.695 48.842-29.622 71.859-18.842 6.352 2.974 12.169 7.138 17.795 11.165 18.042 12.913 33.623 24.063 66.646.686a7.496 7.496 0 0 1 6.955-.906c27.754 10.355 30.693 38.393 33.536 65.508 1.288 12.285 2.62 24.989 6.244 35.903a7.46 7.46 0 0 1 .345 1.612l5.391 53.508zm-95.69-247.44.001.002-.001-.002z"/><circle cx="732.889" cy="65.882" r="58.378"/><path d="M732.938 131.763c-1.866 0-3.746-.079-5.64-.24-36.194-3.083-63.132-35.037-60.05-71.231C670.331 24.098 702.296-2.84 738.479.241c17.533 1.493 33.436 9.725 44.778 23.179s16.766 30.519 15.273 48.052c-2.922 34.302-31.775 60.291-65.592 60.291zm-.086-116.761c-26.119 0-48.401 20.07-50.658 46.563-1.153 13.541 3.036 26.72 11.795 37.111s21.041 16.748 34.582 17.901c13.545 1.154 26.721-3.035 37.112-11.795 10.39-8.759 16.748-21.041 17.901-34.583 1.153-13.541-3.036-26.72-11.795-37.111s-21.041-16.748-34.582-17.901a51.086 51.086 0 0 0-4.355-.186zm58.205 55.834h.01z"/></g><path d="m750.663 1172.099 99.603-75.174c5.051-4.233 12.554-3.682 16.931 1.245a12.183 12.183 0 0 1 .398 15.712l-72.164 90.001" fill="#c16f58"/><path d="M795.426 1211.383a7.502 7.502 0 0 1-5.847-12.192l72.164-90.001a4.668 4.668 0 0 0-.153-6.038 4.658 4.658 0 0 0-6.507-.479 6.776 6.776 0 0 1-.299.238l-99.604 75.174a7.5 7.5 0 0 1-9.036-11.972l99.468-75.072c8.213-6.739 20.117-5.814 27.191 2.148a19.63 19.63 0 0 1 .643 25.385l-72.164 90.001a7.491 7.491 0 0 1-5.856 2.809z" fill="#430c61"/><path d="m791.861 1183.667 87.827-61.919c5.597-3.48 12.947-1.877 16.587 3.617a12.181 12.181 0 0 1-1.819 15.611l-82.183 77.126" fill="#c16f58"/><path d="M812.275 1225.602a7.5 7.5 0 0 1-5.134-12.969l82.183-77.126a4.67 4.67 0 0 0 .699-6 4.659 4.659 0 0 0-6.231-1.476l-87.608 61.766a7.5 7.5 0 0 1-8.644-12.26l87.827-61.919c.118-.083.239-.163.362-.239 9.104-5.661 20.877-3.095 26.799 5.843a19.633 19.633 0 0 1-2.938 25.223l-82.183 77.126a7.474 7.474 0 0 1-5.131 2.031z" fill="#430c61"/><path d="M778.581 686.036c-32.229-17.348-63.899-66.879-64.826-125.628-1.061-67.282 25.236-115.018 25.236-115.018l17.526 4.769a299.999 299.999 0 0 1 96.37 45.904l284.916 204.868c58.042 40.241 57.207 126.34-1.603 165.449l-297.285 221.45c-4.881 3.516-7.368 9.51-6.301 15.43 2.307 12.808 1.305 41.18-26.649 94.591l2.478-5.051 43.04-7.503 38.417-18.749c6.016-2.693 13.082-.113 15.947 5.822a12.182 12.182 0 0 1-3.909 15.223l-40.602 30.215a20.01 20.01 0 0 1-5.659 2.943l-54.424 14.414a39.999 39.999 0 0 1-43.085-15.837l-35.851-51.577a55.684 55.684 0 0 1-4.625-55.895c15.285-32.034 28.171-61.253 40.79-75.948 19.367-22.553 216.17-241.976 216.17-241.976L778.58 686.035" fill="#c16f58"/><path d="M791.092 1243.987c-15.315 0-30.083-7.433-39.082-20.378l-35.851-51.577c-13.01-18.594-15.021-42.897-5.235-63.405 2.128-4.459 4.209-8.864 6.25-13.182 12.932-27.371 24.101-51.009 35.619-64.422 17.229-20.063 176.143-197.338 209.975-235.07L775 692.626c-33.416-18.003-67.751-69.149-68.744-132.1-1.081-68.487 25.053-116.735 26.166-118.755a7.498 7.498 0 0 1 8.539-3.618l17.526 4.769c35.595 9.686 68.829 25.516 98.779 47.052l284.867 204.833a107.39 107.39 0 0 1 46.188 89.346 107.393 107.393 0 0 1-47.798 88.359l-297.127 221.333-.096.07c-2.553 1.839-3.85 4.986-3.304 8.016 2.527 14.027.972 39.036-18.297 80.945l27.45-4.785 37.463-18.283c.075-.036.149-.071.225-.105 9.785-4.382 21.104-.25 25.766 9.406a19.632 19.632 0 0 1-6.243 24.544l-40.543 30.171a27.41 27.41 0 0 1-7.781 4.047 7.27 7.27 0 0 1-.436.129l-54.424 14.414a47.154 47.154 0 0 1-12.082 1.572zm-48.101-789.736c-6.414 13.897-22.556 54.18-21.737 106.039.414 26.265 7.242 52.144 19.744 74.838 11.029 20.02 26.023 36.168 41.137 44.304l.061.033 196.072 107.896a7.5 7.5 0 0 1 1.967 11.578c-1.967 2.193-196.969 219.62-216.063 241.854-10.2 11.877-20.968 34.668-33.437 61.058-2.048 4.335-4.137 8.757-6.273 13.234-7.463 15.64-5.93 34.172 4 48.365l35.864 51.596c7.773 11.183 21.84 16.352 35.007 12.867l54.18-14.349a12.44 12.44 0 0 0 3.345-1.775l40.602-30.215.13-.095a4.67 4.67 0 0 0 1.502-5.851 4.657 4.657 0 0 0-6.042-2.275l-38.279 18.682a7.498 7.498 0 0 1-2.001.648l-39.222 6.837c-.31.598-.624 1.202-.94 1.806a7.5 7.5 0 0 1-10.036 3.211 7.5 7.5 0 0 1-3.342-9.993l2.478-5.051c.204-.416.444-.808.716-1.173 24.188-48.076 24.744-72.986 22.807-83.733-1.559-8.66 2.068-17.604 9.244-22.805l297.243-221.419a6.22 6.22 0 0 1 .328-.23c25.929-17.243 40.973-44.99 41.274-76.127s-14.202-59.171-39.792-76.913l-.105-.074-284.916-204.868c-28.489-20.485-60.102-35.543-93.96-44.757l-11.556-3.145z" fill="#430c61"/><path d="M1055.176 752.156s-35.706-2.347-80.524 41.777" fill="#c16f58"/><path d="M974.653 801.433a7.5 7.5 0 0 1-5.262-12.844c46.675-45.954 84.682-44.019 86.277-43.917a7.501 7.501 0 0 1 6.992 7.976c-.271 4.115-3.8 7.243-7.924 6.995-.603-.03-33.546-1.004-74.822 39.634a7.475 7.475 0 0 1-5.261 2.155z" fill="#430c61"/><path d="M145.01 2063.701c92.098-16.287 135.63-51.304 159.175-85.192 5.641-8.119 17.715-7.856 23.042.473 20.464 31.995 18.811 44.722 46.654 46.256 46.404 2.556 107.824-24.61 116.757-35.43 4.726-2.717 13.144 2.293 11.954 8.124-8.062 39.475 18.866 68.241 18.866 119.117s-48.737 44.942-119.145 31.438c-44.168-8.471-96.141 34.45-202.656 34.45-85.9 0-108.771-56.828-108.771-56.828.126-32.168 23.75-57.035 54.126-62.407z" fill="#f4bf42"/><path d="M199.654 2190.435c-46.679 0-75.522-16.443-91.499-30.237-17.63-15.221-23.968-30.642-24.229-31.291a7.493 7.493 0 0 1-.542-2.83c.136-34.817 24.944-63.504 60.32-69.763 74.636-13.199 125.115-40.049 154.322-82.086 4.076-5.867 10.768-9.308 17.916-9.151a21.34 21.34 0 0 1 17.604 9.862c5.109 7.989 8.931 14.907 12 20.465 9.32 16.875 11.825 21.411 28.747 22.342 45.915 2.541 104.155-24.958 110.561-32.716a7.524 7.524 0 0 1 2.045-1.727c4.93-2.835 11.517-2.211 16.78 1.588 4.962 3.582 7.361 9.152 6.261 14.539-3.896 19.081 1.295 35.743 7.306 55.036 5.49 17.62 11.712 37.591 11.712 62.58 0 16.621-4.933 29.125-14.661 37.164-21.279 17.586-62.163 11.466-113.397 1.639-18.068-3.465-38.833 2.931-65.123 11.028-34.072 10.495-76.477 23.556-136.121 23.556zM98.412 2124.53c1.752 3.551 7.708 14.28 20.177 24.854 20.384 17.286 47.659 26.051 81.065 26.051 57.387 0 98.595-12.693 131.706-22.892 28.284-8.712 50.625-15.593 72.363-11.424 45.68 8.762 84.809 14.924 101.017 1.53 6.202-5.125 9.216-13.5 9.216-25.602 0-22.707-5.609-40.708-11.033-58.118-6.28-20.155-12.215-39.207-7.834-61.731a3.332 3.332 0 0 0-.743-.464c-8.403 7.689-28.292 16.817-45.55 22.88-15.862 5.572-46.743 14.683-75.329 13.111-25.212-1.389-31.175-12.183-41.052-30.067-3.121-5.65-6.657-12.054-11.507-19.636-1.171-1.832-3.086-2.906-5.254-2.947-2.171-.057-4.084.948-5.311 2.713-31.603 45.485-85.256 74.368-164.028 88.298-27.563 4.875-47.049 26.73-47.903 53.444zm46.597-60.83h.01z" fill="#430c61"/><path d="m182.9 2107.455-.15-.001a7.5 7.5 0 0 1-6.959-5.105l-13.859-41.168a7.5 7.5 0 1 1 14.216-4.786l7.193 21.366 11.841-31.035a7.498 7.498 0 0 1 13.149-1.63l17.445 24.893 1.716-34.461a7.499 7.499 0 0 1 12.321-5.364l26.95 22.689-9.141-32.628a7.5 7.5 0 0 1 11.315-8.308l29.487 19.204-16.216-30.188a7.5 7.5 0 0 1 3.058-10.156 7.498 7.498 0 0 1 10.156 3.058l30.099 56.032a7.499 7.499 0 0 1-10.7 9.834l-37.382-24.346 10.334 36.887a7.5 7.5 0 0 1-12.053 7.761l-33.999-28.624-2.051 41.189a7.5 7.5 0 0 1-13.633 3.931l-21.879-31.22-14.251 37.352a7.5 7.5 0 0 1-7.006 4.827z" fill="#430c61"/><path d="M521.456 2117.048c-.397 0 0 39.617-88.642 16.266-74.748-19.691-135.358 35.973-219.311 35.973-81.037 0-107.326-28.474-109.807-41.421-4.195-21.892-12.812-24.741-12.812-24.741s-9.124 15.002 1.415 41.699c12.51 31.691 59.995 54.335 120.371 54.335 71.935 0 107.914-22.953 143.488-22.953 40.431 0 41.908 22.953 91.655 22.953h56.154c24.202 0 40.726-24.478 31.676-46.925l-14.186-35.186z" fill="#430c61"/><path d="M503.966 2206.658h-56.154c-27.918 0-42.015-6.984-54.452-13.147-10.62-5.262-19.791-9.806-37.204-9.806-13.71 0-28.141 3.826-44.851 8.257-24.693 6.548-55.425 14.696-98.637 14.696-62.221 0-113.398-23.743-127.347-59.081-11.771-29.821-1.298-47.607-.847-48.35a7.502 7.502 0 0 1 8.762-3.224c3.003.993 13.163 6.123 17.824 30.451 1.43 7.463 23.007 35.333 102.441 35.333 35.898 0 67.737-10.642 98.527-20.933 40.539-13.551 78.829-26.349 122.694-14.792 45.976 12.112 64.778 5.999 71.894 1.278 4.229-2.806 6.694-6.48 7.327-10.921.773-5.423 5.084-6.87 7.51-6.87a7.5 7.5 0 0 1 6.956 4.695l14.186 35.186c5.183 12.857 3.647 27.392-4.108 38.881s-20.662 18.349-34.524 18.349zm-147.809-37.953c20.925 0 32.586 5.778 43.863 11.365 12.027 5.959 23.387 11.588 47.792 11.588h56.154c9.002 0 17.055-4.279 22.091-11.741 5.037-7.461 5.995-16.53 2.629-24.879l-8.039-19.939a34.882 34.882 0 0 1-5.735 4.74c-16.364 10.858-44.628 11.102-84.008.728-39.536-10.416-75.763 1.694-114.118 14.514-31.928 10.672-64.944 21.707-103.282 21.707-85.483 0-114.025-31.077-117.173-47.51a71.74 71.74 0 0 0-1.575-6.619c.271 5.23 1.484 11.721 4.52 19.411 11.525 29.197 58.155 49.589 113.395 49.589 41.257 0 70.941-7.871 94.793-14.195 17.723-4.699 33.029-8.758 48.695-8.758z" fill="#430c61"/><path d="M808.083 2070.79c73.004-27.59 75.653-64.929 76.697-106.18.25-9.883 10.481-16.299 19.509-12.269 34.681 15.482 47.365 21.805 71.468 7.784 40.172-23.369 64.805-78.814 66.321-92.764 2.455-4.868 12.242-5.308 14.452.217 14.961 37.409 53.267 46.641 81.23 89.143 27.962 42.502-5.718 62.081-64.931 81.68-42.695 14.132-108 144.522-198.486 144.522-128.55 0-115.506-45.807-115.506-45.807-2.309-32.085 12.238-52.338 49.247-66.325z" fill="#f4bf42"/><path d="M874.342 2190.422c-61.899 0-101.148-10.416-116.658-30.958-7.538-9.984-7.019-19.201-6.399-22.856-1.09-17.648 2.641-32.016 11.392-43.892 8.785-11.923 22.771-21.39 42.755-28.942 70.005-26.456 70.902-61.866 71.851-99.354a21.276 21.276 0 0 1 9.936-17.491 21.34 21.34 0 0 1 20.127-1.437l2.639 1.179c32.14 14.363 41.84 18.698 62 6.971 38.505-22.399 61.474-76.39 62.637-87.091a7.492 7.492 0 0 1 .759-2.566c2.561-5.077 8.424-8.175 14.892-7.896 6.114.265 11.179 3.601 13.22 8.705 7.232 18.082 20.727 29.148 36.352 41.962 14.271 11.703 30.445 24.967 44.18 45.843 10.697 16.259 13.72 30.421 9.244 43.295-7.756 22.305-36.824 35.97-78.083 49.626-13.709 4.538-32.672 25.602-52.749 47.903-38.904 43.216-87.323 96.999-148.094 96.999zm-108.264-51.341c-.145.78-.841 5.832 3.985 11.87 7.304 9.139 30.564 24.471 104.279 24.471 54.092 0 100.033-51.031 136.946-92.035 23.298-25.879 41.7-46.32 59.183-52.107 30.518-10.101 62.536-22.789 68.629-40.313 2.841-8.171.353-18.025-7.607-30.125-12.48-18.969-27.06-30.926-41.16-42.488-16.324-13.387-31.753-26.041-40.474-47.266a3.282 3.282 0 0 0-.808.012c-1.948 9.271-8.717 25.876-19.246 43.033-10.113 16.479-27.044 38.959-50.277 52.475-26.806 15.592-42.116 8.75-75.663-6.242l-2.633-1.176c-1.986-.887-4.176-.731-6.009.426a6.224 6.224 0 0 0-2.945 5.185c-.466 18.4-1.045 41.3-12.297 61.653-12.007 21.719-34.016 38.039-69.246 51.354-33.639 12.713-46.507 29.74-44.418 58.771.07.976.061 1.599-.238 2.505z" fill="#430c61"/><path d="M833.679 2106.065a7.5 7.5 0 0 1-5.871-2.833l-22.905-28.808a7.5 7.5 0 0 1 1.203-10.538 7.498 7.498 0 0 1 10.538 1.203l11.241 14.138 2.042-22.723a7.498 7.498 0 0 1 11.452-5.685l21.59 13.528-9.691-20.935a7.5 7.5 0 0 1 8.142-10.531l29.418 5.322-18.842-17.656a7.5 7.5 0 0 1 4.869-12.968l36.713-1.272-32.895-15.497a7.5 7.5 0 1 1 6.393-13.569l60.928 28.704a7.5 7.5 0 0 1-2.936 14.28l-49.643 1.721 24.214 22.69a7.5 7.5 0 0 1-6.464 12.853l-40.22-7.276 14.232 30.745a7.501 7.501 0 0 1-10.789 9.507l-32.626-20.443-2.625 29.214a7.5 7.5 0 0 1-7.469 6.83z" fill="#430c61"/><path d="M1137.759 1956.721c-.332.218 21.222 31.504-65.113 62.308-49.903 17.805-85.693 73.439-122.982 111.587-20.065 20.527-42.9 34.192-65.943 38.061-35.653 5.986-95.212-1.058-112.014-14.728-5.994-26.361-16.226-29.627-16.226-29.627s-9.378 19.9 2.517 41.647c10.217 18.677 53.57 32.19 102.58 32.19 90.681 0 132.591-66.304 158.888-90.262 37.583-34.24 60.339-14.762 101.899-42.103l46.912-30.863c20.219-13.302 20.57-42.833.672-56.611l-31.19-21.598z" fill="#430c61"/><path d="M860.578 2205.658c-52.648 0-97.536-14.841-109.16-36.091-13.57-24.808-3.171-47.49-2.721-48.443a7.501 7.501 0 0 1 9.065-3.948c2.312.738 13.856 5.701 20.591 32.328 17.04 10.921 71.358 17.278 104.126 11.776 20.915-3.512 42.292-15.928 61.822-35.907 9.605-9.826 19.006-20.713 28.96-32.239 28.598-33.117 58.169-67.362 96.865-81.168 45.472-16.224 57.689-31.789 60.924-39.624 1.793-4.342 1.826-8.381.098-12.005-2.36-4.95.453-8.539 2.486-9.878a7.5 7.5 0 0 1 8.396.097l31.19 21.598c11.396 7.892 18.102 20.878 17.938 34.739s-7.177 26.685-18.757 34.304l-46.912 30.863c-20.404 13.423-36.919 16.34-51.491 18.914-16.519 2.917-30.784 5.437-49.479 22.468-4.395 4.004-9.345 9.359-15.077 15.559-13.958 15.097-31.329 33.885-55.248 49.306-28.547 18.406-59.169 27.353-93.614 27.353zm-101.096-65.082c-.275 6.102.713 13.78 5.096 21.792 7.606 13.906 45.595 28.289 96 28.289 71.425 0 111.397-43.234 137.848-71.842 5.966-6.453 11.119-12.026 15.99-16.463 21.907-19.959 39.733-23.107 56.972-26.151 14.419-2.546 28.039-4.952 45.856-16.673l46.912-30.863c7.521-4.948 11.896-12.949 12.002-21.951s-4.077-17.104-11.478-22.229l-17.906-12.399a34.162 34.162 0 0 1-1.86 5.98c-7.437 18.008-30.903 34.167-69.748 48.026-34.969 12.477-63.226 45.199-90.553 76.844-10.109 11.707-19.657 22.764-29.586 32.921-21.767 22.267-45.995 36.173-70.065 40.215-35.788 6.009-98.516-.463-117.989-16.306a7.505 7.505 0 0 1-2.58-4.155c-1.5-6.599-3.239-11.466-4.911-15.035zm-6.82-9.314z" fill="#430c61"/></svg></g><g transform="translate(1035.0 239.0) rotate(5.415826664469822 126.5 122.0) scale(1.009645506678426 1.0119148830284455)"><svg width="250.583" height="241.127" viewBox="0 0 250.583 241.127"><ellipse cx="176.514" cy="177.447" fill="#a1d7f1" rx="42.53" ry="56.887" transform="matrix(.97121748 -.23819445 .23819445 .97121748 -37.186 47.151)"/><path d="M182.464 241.113c-23.802 0-47.066-21.275-54.54-51.749-4.002-16.32-2.973-32.923 2.897-46.752 6.189-14.579 16.97-24.416 30.356-27.699 26.792-6.57 55.47 16.136 63.926 50.617 8.457 34.481-6.461 67.879-33.253 74.45a39.32 39.32 0 0 1-9.386 1.132zm-11.692-112.356c-2.016 0-4.027.236-6.021.725-8.68 2.129-15.827 8.874-20.122 18.992-4.614 10.868-5.373 24.121-2.136 37.317 5.797 23.636 22.82 40.344 39.763 40.347 2.016 0 4.027-.236 6.021-.725 18.76-4.601 28.745-29.861 22.258-56.309-5.797-23.636-22.82-40.347-39.763-40.347z" fill="#430c61"/><path d="M237.338 146.158c-11.048-30.945-24.31-40.703-42.361-74.895C171.347 26.506 134.096 2.32 79.702 8.436 30.529 13.965 7.5 35.1 7.5 35.1S122.457 2.043 154.635 86.552c12.565 33.001 5.82 56.987 5.56 79.621-.417 36.278 22.709 60.171 46.156 58.786 28.068-1.658 46.726-34.716 30.986-78.801z" fill="#a1d7f1"/><path d="M204.396 232.517c-11.283 0-22.375-4.692-31.473-13.368-13.099-12.491-20.472-31.831-20.228-53.062.065-5.722.511-11.323.983-17.254 1.414-17.778 2.876-36.161-6.053-59.612-12.174-31.973-38.678-49.663-78.777-52.578-31.107-2.262-59.003 5.587-59.281 5.666a7.502 7.502 0 0 1-7.138-12.736C3.443 28.644 27.847 6.719 78.864.983c27.97-3.145 52.775 1.322 73.728 13.274 19.722 11.25 36.213 29.252 49.017 53.503 7.279 13.786 13.883 23.688 19.71 32.425 8.74 13.103 16.288 24.42 23.082 43.451 9.334 26.144 8.043 51.182-3.541 68.694-8.037 12.149-20.135 19.293-34.066 20.116-.799.047-1.6.071-2.397.071zM57.145 21.228c4.027 0 8.166.13 12.38.425 45.992 3.228 77.846 24.747 92.118 62.23 10.131 26.609 8.461 47.61 6.987 66.139-.451 5.67-.877 11.025-.937 16.237-.196 17.084 5.482 32.405 15.581 42.034 6.696 6.385 14.733 9.646 22.634 9.179 9.103-.538 17.073-5.303 22.441-13.418 8.955-13.536 9.656-33.719 1.924-55.374-6.172-17.289-12.907-27.387-21.434-40.171-6.027-9.036-12.858-19.278-20.496-33.745C164.535 29.668 129.274 10.41 80.54 15.889 70.041 17.069 60.794 19 52.772 21.278c1.44-.033 2.899-.05 4.373-.05z" fill="#430c61"/><ellipse cx="202.846" cy="167.895" fill="#fff" rx="20.011" ry="26.767" transform="matrix(.98578569 -.16800765 .16800765 .98578569 -25.324 36.465)"/></svg></g></svg>